
/* XPM */
static char *dash_logo_toolbar_16x16[] = {
/* columns rows colors chars-per-pixel */
"16 16 201 2 ",
"   c None",
".  c #0F59BA",
"X  c #0F59BC",
"o  c #1A57B0",
"O  c #1B5AB4",
"+  c #1E5CB5",
"@  c #1D5EB6",
"#  c #135CBB",
"$  c #205BB2",
"%  c #316ABC",
"&  c #316CBD",
"*  c #4576BF",
"=  c #0C5FC6",
"-  c #1163C7",
";  c #1369CA",
":  c #166FCC",
">  c #186BC8",
",  c #1B6FCC",
"<  c #1C73CE",
"1  c #2767C1",
"2  c #296CC2",
"3  c #316EC0",
"4  c #2A75C7",
"5  c #2D7ECD",
"6  c #3171C2",
"7  c #3C73C0",
"8  c #3C73C1",
"9  c #3C75C0",
"0  c #3D75C1",
"q  c #207DD2",
"w  c #4277C2",
"e  c #2586D6",
"r  c #2987D6",
"t  c #2C88D7",
"y  c #2887D9",
"u  c #328CD5",
"i  c #318DD6",
"p  c #318DD7",
"a  c #338CD6",
"s  c #348DD4",
"d  c #348ED6",
"f  c #368FD6",
"g  c #3A8ED2",
"h  c #3192D4",
"j  c #3294D4",
"k  c #3597D6",
"l  c #3A91D5",
"z  c #3992D4",
"x  c #3993D5",
"c  c #3992D6",
"v  c #3B95D6",
"b  c #3A97D7",
"n  c #3E95D4",
"m  c #3C97D5",
"M  c #3F96D5",
"N  c #3699D6",
"B  c #369CD5",
"V  c #3999D7",
"C  c #3B98D6",
"Z  c #399BD6",
"A  c #3B9AD6",
"S  c #3B9DD7",
"D  c #3692D8",
"F  c #3794D8",
"G  c #3695DA",
"H  c #3596DA",
"J  c #3992DB",
"K  c #3996D8",
"L  c #3997D9",
"P  c #3D95D8",
"I  c #3799DA",
"U  c #379CD8",
"Y  c #359EDE",
"T  c #3A99D9",
"R  c #3B9CD9",
"E  c #389ED8",
"W  c #399ED9",
"Q  c #3B9FD8",
"!  c #3A9CDA",
"~  c #3A9FDB",
"^  c #3C9ED9",
"/  c #3C9FD9",
"(  c #3F9ED8",
")  c #3EA0D8",
"_  c #3EA2D9",
"`  c #3DA3DE",
"'  c #5E89C7",
"]  c #5088CC",
"[  c #5E8CCA",
"{  c #5F91CE",
"}  c #4295D4",
"|  c #4198D3",
" . c #419DD7",
".. c #4396DA",
"X. c #4C9CD8",
"o. c #5A93D5",
"O. c #5899D6",
"+. c #569ED9",
"@. c #6995CE",
"#. c #6094D0",
"$. c #6096D3",
"%. c #6893D3",
"&. c #6998D1",
"*. c #6B9CD3",
"=. c #6697DB",
"-. c #699ADC",
";. c #6A9BDC",
":. c #6B9EDF",
">. c #749AD5",
",. c #759BD5",
"<. c #769BD5",
"1. c #759CD6",
"2. c #46A3D8",
"3. c #45A4D8",
"4. c #47A6D8",
"5. c #47A6DA",
"6. c #49A0D8",
"7. c #4BA5DA",
"8. c #4FA5DA",
"9. c #4BA8D9",
"0. c #4EA8DA",
"q. c #52A3D7",
"w. c #51A7DB",
"e. c #54A9DA",
"r. c #55ACDC",
"t. c #5EABDB",
"y. c #5EADDB",
"u. c #5FABDC",
"i. c #5CAEDD",
"p. c #5EB0DE",
"a. c #64A0DA",
"s. c #61A2DF",
"d. c #62A5DD",
"f. c #6EA3D9",
"g. c #6CA5DC",
"h. c #60A8DB",
"j. c #63ACDD",
"k. c #6BA8DE",
"l. c #6DA8DC",
"z. c #6FA9DC",
"x. c #71A5D8",
"c. c #72A8DB",
"v. c #75A9DB",
"b. c #65B4DE",
"n. c #6AB4DE",
"m. c #68B7DF",
"M. c #74B1DF",
"N. c #60AEE6",
"B. c #78A8E1",
"V. c #6EB2E0",
"C. c #71B2E0",
"Z. c #74B3E0",
"A. c #77B4E0",
"S. c #75B6E1",
"D. c #75B7E2",
"F. c #79B4E1",
"G. c #75BAE2",
"H. c #77BCE3",
"J. c #75B9E5",
"K. c #70BCE6",
"L. c #74BEE5",
"P. c #7BBBE2",
"I. c #7ABBE3",
"U. c #7DB9E1",
"Y. c #79BCE1",
"T. c #79BCE3",
"R. c #7ABCE2",
"E. c #7ABFE2",
"W. c #7EBFE3",
"Q. c #7FBEE4",
"!. c #7CC1E3",
"~. c #7FC5E8",
"^. c #8CADDE",
"/. c #8DBBE7",
"(. c #81C1E3",
"). c #81C0E4",
"_. c #81C1E4",
"`. c #82C4E5",
"'. c #99CCEA",
"]. c #9ACEEC",
"[. c #9BD0EC",
"{. c #9DD1EC",
"}. c #9DD2ED",
"|. c #9FD3ED",
" X c #DAEEFA",
".X c #E2F2FB",
"XX c #EFF7FC",
"oX c #F0F8FC",
"OX c #F3FBFD",
"+X c #F8FCFC",
"@X c #F9FCFD",
"#X c #F9FDFD",
"$X c #FAFEFD",
"%X c #FBFEFD",
"&X c #F8FDFE",
"*X c #FBFEFE",
"=X c #FCFEFD",
"-X c #FCFEFE",
";X c #FDFEFE",
":X c #FEFFFE",
">X c #FFFFFF",
/* pixels */
"          3.r.p.i.w. .          ",
"      3.n.`._.E.E._.Q.u.n       ",
"    9.!.E.7.Q / Q / 8.P.S.n     ",
"  3.E.n._ L.K.` Q Q Z Z V.Z.x   ",
"  b.E.B ~.&XXXN.Y T T v v F.+.  ",
"2.(.0.Q |.>X>X:.e T K K x X.x.5 ",
"e.W._ Q |.>X>X;.; r H K x x v.6 ",
"y.H.S U |.>X&X;.- < t D d d l.0 ",
"t.H.Z N [.>X>X=.= : q i d i l.0 ",
"q.P.Z k ].>XOXB.o.a.d.J i i c.& ",
"| U.6.j '.&X X.X&X&X&X/.y ..*.+ ",
"  h.S.h J. XOX&X&X&X&X^., k.w   ",
"  n S.j.H s.1.>.>.>.%.1 ] [ O   ",
"    } M.C.P > X . # 2 #.' $     ",
"      g O.f.g.$.$.&.@.* o       ",
"          4 3 8 8 % +           "
};
