
/* XPM */
static char *dash_logo_toolbar_64x64[] = {
/* columns rows colors chars-per-pixel */
"64 64 229 2 ",
"   c None",
".  c #1654AE",
"X  c #1955AF",
"o  c #1A58AE",
"O  c #0E54BC",
"+  c #0F58BF",
"@  c #1555B4",
"#  c #1857B1",
"$  c #1659B6",
"%  c #1A5CB5",
"&  c #1455BB",
"*  c #1854BB",
"=  c #155BBB",
"-  c #1A5EB9",
";  c #245CB5",
":  c #265DB7",
">  c #1662BE",
",  c #1B63BC",
"<  c #1D64BB",
"1  c #2B63BA",
"2  c #2467BC",
"3  c #3C6EBD",
"4  c #3469BC",
"5  c #4573BD",
"6  c #4E79BF",
"7  c #0755C4",
"8  c #0E5BCB",
"9  c #0C59C1",
"0  c #135DC2",
"q  c #105DCB",
"w  c #0A56D0",
"e  c #0F62CD",
"r  c #0E63C2",
"t  c #1564C6",
"y  c #1865C1",
"u  c #1C6CC2",
"i  c #1364C9",
"p  c #176ACA",
"a  c #186CCA",
"s  c #126DC6",
"d  c #1572CB",
"f  c #1B72CD",
"g  c #1A78CD",
"h  c #1C76D1",
"j  c #1E7BD4",
"k  c #1B77D7",
"l  c #136AD4",
"z  c #236DC1",
"x  c #2162C0",
"c  c #2979CB",
"v  c #2777C9",
"b  c #377BC7",
"n  c #227CD2",
"m  c #377FD7",
"M  c #4575C3",
"N  c #4D7BC1",
"B  c #4977C0",
"V  c #527DC1",
"C  c #527CC8",
"Z  c #1A85DA",
"A  c #3588CF",
"S  c #3987CE",
"D  c #2481D4",
"F  c #2A86D5",
"G  c #2D8AD6",
"H  c #2383D8",
"J  c #2B87D8",
"K  c #258BDD",
"L  c #2C8CDB",
"P  c #2388D6",
"I  c #348DD5",
"U  c #398DD2",
"Y  c #328DD9",
"T  c #3286D0",
"R  c #2D92D6",
"E  c #2C93DA",
"W  c #2D99D9",
"Q  c #2793DA",
"!  c #3593D5",
"~  c #3A94D4",
"^  c #3699D5",
"/  c #3B9BD6",
"(  c #3594DA",
")  c #3995D8",
"_  c #349CDA",
"`  c #3B9DD9",
"'  c #2E82CD",
"]  c #3CA1D7",
"[  c #35A1DC",
"{  c #3CA1DA",
"}  c #1D91E2",
"|  c #2694E2",
" . c #2B93E1",
".. c #2D98E2",
"X. c #389DE0",
"o. c #329AE3",
"O. c #228EE2",
"+. c #2DA0E5",
"@. c #34A2E3",
"#. c #38A3E2",
"$. c #37A9E7",
"%. c #4B88CD",
"&. c #5888C9",
"*. c #5C95CE",
"=. c #548ED6",
"-. c #419DD6",
";. c #439ED8",
":. c #4B9DD9",
">. c #4898D6",
",. c #569BD4",
"<. c #5596D3",
"1. c #698CC6",
"2. c #7B9ACD",
"3. c #779ACF",
"4. c #689AD5",
"5. c #759DDA",
"6. c #7C99D2",
"7. c #43A2D7",
"8. c #49A3D6",
"9. c #44A3D9",
"0. c #4BA4D9",
"q. c #43A9DB",
"w. c #4BABDA",
"e. c #53A3D8",
"r. c #5BA5DA",
"t. c #53AADC",
"y. c #5CACDC",
"u. c #57A0D5",
"i. c #5DB3DF",
"p. c #53B0DC",
"a. c #64ACDC",
"s. c #6BADDC",
"d. c #66A3D8",
"f. c #7AA1DB",
"g. c #76A7D9",
"h. c #6CB4DE",
"j. c #6BBADE",
"k. c #62B5DD",
"l. c #73B4DE",
"z. c #79B3DF",
"x. c #7CB8DF",
"c. c #74BDDF",
"v. c #429FE2",
"b. c #4BB0E2",
"n. c #5DB4E1",
"m. c #5CB6E4",
"M. c #4FA4E7",
"N. c #67B7E3",
"B. c #74B8E1",
"V. c #7CBCE1",
"C. c #7AB6E2",
"Z. c #73BBF1",
"A. c #76C0DE",
"S. c #7BC4E3",
"D. c #7AC3EA",
"F. c #819ECB",
"G. c #8BA6D3",
"H. c #88A6D8",
"J. c #94ADD9",
"K. c #85B8DE",
"L. c #9CB7DB",
"P. c #A4BADD",
"I. c #ACBEDF",
"U. c #A0B6DA",
"Y. c #85BBE2",
"T. c #89BCE3",
"R. c #95BDE2",
"E. c #A5BBE1",
"W. c #ABBEE1",
"Q. c #9CC0DF",
"!. c #ADC1DD",
"~. c #B4C5DE",
"^. c #8DC3E4",
"/. c #85C6E6",
"(. c #93CCEA",
"). c #9DCCE9",
"_. c #96C9E5",
"`. c #9CD2EA",
"'. c #9AD3F6",
"]. c #8FCCF3",
"[. c #A3CEE9",
"{. c #A8CAE6",
"}. c #BCCCE2",
"|. c #B3C3E0",
" X c #A1D4EA",
".X c #ABD3EB",
"XX c #A8DCEE",
"oX c #B5D4EB",
"OX c #B5DBED",
"+X c #BCDBEE",
"@X c #B6D1EA",
"#X c #A5D5F5",
"$X c #BADAF0",
"%X c #BAE1EF",
"&X c #B6E1EF",
"*X c #BCE3FA",
"=X c #B5E1F0",
"-X c #C3D2E6",
";X c #C4DBED",
":X c #C9D6E8",
">X c #C4DFF0",
",X c #C8DFF0",
"<X c #D0DCEA",
"1X c #D4E2EE",
"2X c #DCE5EE",
"3X c #C4E2F1",
"4X c #CBE4F2",
"5X c #CEE9F3",
"6X c #C8E7F9",
"7X c #D3E6F2",
"8X c #DBE6F1",
"9X c #D5EAF4",
"0X c #DCECF5",
"qX c #D6EEFB",
"wX c #DBF1FA",
"eX c #DEF1F6",
"rX c #E3ECF4",
"tX c #E8EDF4",
"yX c #E2F2F7",
"uX c #EBF3F6",
"iX c #E5F5F9",
"pX c #E5F4F9",
"aX c #EBF6F9",
"sX c #EEF9FB",
"dX c #F2F7F9",
"fX c #F4FAFB",
"gX c #F5FBFC",
"hX c #FCFEFE",
"jX c #F2F6F7",
/* pixels */
"                                                    0.9.9.9.9.9.9.9.-.-.;.;.                                                    ",
"                                            9.9.0.9.9.9.9.9.9.9.9.7.-.-.-.-.-.-.;.;.                                            ",
"                                        9.9.9.9.9.9.9.9.9.9.9.9.{ { 7.7.7.;.-.-.-.-./ /                                         ",
"                                  9.9.9.9.9.9.9.9.9.9.9.w.y.i.i.i.y.t.0.9.{ / / ` ` / / / / -.                                  ",
"                                8.7.8.9.9.9.{ w.i.S. X%X5X0XyXiXiXyXeX5X%X XV.y.9.` / / / / ~ ~                                 ",
"                            9.8.9.8.9.q.w.k.(.3XiXfXfXaX9X4X+X+X$X+X3X9XiXfXfXiX3X^.y.;./ / / ~ ~ ~                             ",
"                          7.7.7.9.9.w.S.&XiXgXpX>X_.l.y.0.;.-./ / ;.;.0.y.B.).3XpXgXyX.Xh.-.^ / ~ ~ ~                           ",
"                      9.8.9.9.9.q.j.&XsXfX4X^.y.-.^ ^ ^ ` ` { { { ` ` ` ^ / / ;.y.^.4XfXiX.Xy.^ ^ ^ ^ ^ ^                       ",
"                    9.9.9.9.9.p.`.iXgX3XV.0.^ ^ ^ ^ / ` { { { { { { { { 9.] / / ^ ) 0.V.3XgX0X^.9.^ ^ ^ ~ ~                     ",
"                  0.9.9.9.9.j.3XgX9XY.;.^ ^ ^ ^ ^ ^ ] ] { 9.9.{ { { { { ` / / / / ^ ) ) 0.^.0XgXOXy.^ ^ ! ~ ~                   ",
"                9.9.9.9.q.S.eXfX.Xe.^ ^ ^ ^ ` { ] { { { { 9.9.{ ` ` ` ` ` / / / / / ^ ^ ^ ) y.+XgX9XB.^ ! ~ ~ ~                 ",
"              9.7.9.] 9./.iXaX^.-.^ ^ ^ ^ ^ { { { { { { { { { ` ` ` ` ` ` ` / / / / ^ ^ ^ ^ ^ :.).aXyXC.~ ! ~ ~ ~               ",
"              9.9.9.9./.aXyXx.^ ^ ^ ^ ^ ^ ` { { { { { { { { { { { ` { ` ` ` ` ` ` / ^ ^ ^ ^ ^ ^ -.Y.pXpXl.~ ~ ~ ~               ",
"            9.9.9.9.A.iXyXl.^ ^ ^ ` ^ ` _ _ [ [ [ { { { { { { { { ` ` ` ` ` ` ` ) ^ ^ ^ / / / ^ ^ ~ V.pXrXs.~ ! ! U             ",
"          9.9.9.9.k.9XaXx.^ ^ ^ ^ { [ [ { N.(. X`.D.b.#.@.[ { { { { ` ` ` ` ) ) ) ^ / ^ / / ~ ^ ^ ^ ~ Y.aX7Xr.! ! ! U           ",
"          7.7.] w.%XfX^./ ^ ^ ^ ^ [ [ b.XXaXhXhXhXgX5XB.@.@.@.#.{ ` ` ` ` ` ) ) ) ` ) ) ) / ~ ~ ^ ^ ^ ~ _.fXoX>.^ ! !           ",
"        7.7.7.9.(.gX.X-.^ ^ / ^ ^ [ $.=XhXhXhXhXhXhXhXrXy.+.@.#.[ [ ` ` ` ` ` ) ) ) ) ) ) ) ~ ~ ^ ~ ^ ^ >.$XfXK.! ! ! ~         ",
"      9.7.7.] j.iX7Xe.^ ^ / ^ ^ [ [ /.gXhXhXhXhXhXhXhXhX@Xo.$.$.#.{ { ` ` ` ` ) ) ) ) ) ) ) ) ) ~ ^ ^ ^ ! r.0X8X<.R ! U ~       ",
"      9.7.7.8.OXfXV./ ^ / ^ ^ ] [ q.6XhXhXhXhXhXhXhXhXhXaX=.| $.#.{ { ` ` ` ` ) ) ) ) ) ) ) ^ ^ ~ ~ ^ ^ ^ ~ T.fXL.' ( ! U       ",
"      7.7.7.c.aX+X7./ ^ ^ ^ ^ ] [ m.iXhXhXhXhXhXhXhXhXhXgX4.l @.$.#.{ ` ` ` ) ) ` ) ) ) ) ^ ^ ^ ) ) ^ ^ ^ ~ >.>XrX&.G ) U       ",
"    7.7.-.8.OXaXl.^ / / / ^ ^ { [ m.aXhXhXhXhXhXhXhXhXhXgX5.w k o.#.` ` ` ) ) ) ) ) ) ) ) ) ^ ^ ) ~ ~ ~ ~ ~ U z.aXL.2 T U U     ",
"    7.7./ j.aX+X7.] ] / / ` ` ` [ N.aXhXhXhXhXhXhXhXhXhXhX5.8 e k o.X.` ) _ ) ) ) ) ) ) ) ) ) ) ) ~ ~ ~ ~ ~ ! >.>X2X5 u Y U     ",
"  9.9.7.7. XfXS.] ] ] ] { { { ` _ m.aXhXhXhXhXhXhXhXhXhXhXf.q e i h _ ` _ _ ) ) ) ) ) ^ ) ) ) ) ^ ^ ~ ~ ~ ~ ~ I Y.fX2.$ v T U   ",
"  9.9.7.t.5X9Xt.{ ] ] { 9.{ { { _ n.aXhXhXhXhXhXhXhXhXhXhXf.q i i p D ( _ _ ( ) _ ) ) ) ) ) ) ) ) ~ ~ ~ ~ ~ ~ ! :.0X}.: = v G   ",
"  7.9./ h.aX.X] { ] 7.9.9.9.` ` _ n.aXhXhXhXhXhXhXhXhXhXhXf.q i t t a D ( ( ( ( ) ) ) ) ) ) ) ) ) ) ~ ~ ~ ~ ~ ! ~ oXtX6 = > c   ",
"  -.7.-._.fXV.^ ] ] 7.9.;.` ` ` _ i.aXhXhXhXhXhXhXhXhXhXhXf.q i i t p a D E ( ( ) ) ( ) ) ! ! ! ) ~ ~ ~ ~ ~ U U I Y.fX2.= - >   ",
"-.-.-.7.OXiXk.^ ] ] / / ` ` ` ` _ n.aXhXhXhXhXhXhXhXhXhXhXf.q i t t p p a D ( ( ( ( ( ) ) ! ! ! ) ) ~ ~ ~ U U U I r.aXP.% - - , ",
"-.-./ 8.4X9X0.{ { / / ` ` ` ` _ _ N.aXhXhXhXhXhXhXhXhXhXhXf.8 i t t p p a f H E ( ( ) ) ) ! ! ! ) ) ~ U U U U U I >.9X-X1 - - , ",
"-./ / y.eX3X9.{ { / / ` ` ` ` _ _ N.aXhXhXhXhXhXhXhXhXhXhXf.8 i i t t p a a h n L ) ) ) ) ) ! ) ) ) ! U U U U U U ~ >X1X3 $ - , ",
"-./ ^ a.aXOX9.{ { / ` ` ` ` ` _ _ n.iXhXhXhXhXhXhXhXhXhXhXf.8 i t t t p a f f h n G ) ) ) ) ) ) ) ) U U U U U U U U OXtX5 $ - - ",
"-./ ^ h.aX.X{ { ` / / / ^ ^ ` _ W n.iXhXhXhXhXhXhXhXhXhXgXf.8 i i t t p a f f h h H G ( ( ) ) ) ) U U I U U U U U I .XuX6 $ - - ",
"-.-./ B.fX).{ ` ` ` / / ^ ^ ^ _ _ i.iXhXhXhXhXhXhXhXhXhXgXf.8 i i t t p a f f h h n J L ( ( ( ) ) U U I U U U I I T [.uX6 @ % - ",
"-.-./ B.dX).` ` ` ` / / / ^ ^ _ W i.iXhXhXhXhXhXhXhXhXhXgX5.8 i i t t p a a f h j j H G ! ( ! ! ! U U U I U I I I T [.aXN $ - - ",
"-./ / l.dX X` ` ` ^ / / / ^ ^ _ W n.iXhXhXhXhXhXhXhXhXhXgX5.8 q q i t p a a f h h j n F G ! ! ! ! U U U U I I I I I .XaXN = - % ",
"/ / ^ a.aX.X` ` ^ ^ ^ / / / ^ _ W n.iXhXhXhXhXhXhXhXhXhXgX5.8 q q t t p a f f f n n n D G I I I I I I Y Y Y I I T I oXrXM = - < ",
"-./ ^ r.yX+X-.^ ^ ^ ^ / / / ^ _ W n.iXhXhXhXhXhXhXhXhXhXgX5.8 q q t t p a f f f n n n D F I I U I I I I Y Y I I G U >X1X4 % - % ",
"-./ / :.7X4X8.^ ^ ^ ^ ` ` / ^ _ E n.iXhXhXhXhXhXhXhXhXhXgX5.8 8 q t t p a f f f n n D F F I U Y Y I I I I I T T G >.9X}.1 - - , ",
"-.-./ -.OXyXy.^ ^ ^ ^ / / / ^ ^ W n.iXhXhXhXhXhXhXhXhXhXgX4.7 7 7 9 9 r t s s d d g j H J L Y Y Y I I I I T T T F r.aXU.% - - , ",
"  -./ ~ _.fXl.^ ^ ^ ^ ^ ^ ^ ^ ^ R i.iXhXhXhXhXhXhXhXhXhX4Xm t b %.%.%.=.<.,.,.,.,.r.e.I P K L L Y Y I I I T T G F V.fX3.= - -   ",
"  ~ ~ ~ s.aX).^ ^ ^ ^ ^ ^ ^ ^ ^ R y.iXhXhXhXhXhXhXhXhX0XN.M.(.9XaXaXaXfXaXfXfXfXfXdXaX3Xs.P K K L L Y I I T T G T .XuXN = - %   ",
"  ~ ~ ~ :.9X4X:.^ ^ ^ ^ ^ ^ ^ ^ R y.iXhXhXhXhXhXhXhX0XV.Z.6XhXhXhXhXhXhXhXhXhXhXhXhXhXhXaXg.Z O.L L Y T T T Y G >.9X-X1 $ - %   ",
"  -.~ ~ ^ .XaXl.^ ^ ^ ^ ^ ^ ^ ^ R y.iXhXhXgXgXgXgXiX'.].wXhXhXhXhXhXhXhXhXhXhXhXhXhXhXhXhX8XS Z  .L Y T I I Y G z.fXG.$ - - %   ",
"    ~ ~ ^ s.aX.X/ ^ ^ ^ ~ ^ ^ ^ R t.pXhXgXgXfXfXaX6X*XiXgXhXhXhXhXhXhXhXhXhXhXhXhXhXhXhXhXhX6.i |  .L L T T G U OXrX5 @ - -     ",
"    ~ ~ ^ >.+XyXa.^ ^ ^ ~ ! ! ^ R t.yXhXgXfXfXpX6XqXsXgXhXhXhXhXhXhXhXhXhXhXhXhXhXhXhXhXhXhXE.9 k  .L L G G F a.aXP.% $ - %     ",
"      ~ ~ ! l.aX.X/ ^ ^ ! ! ! ! E t.0XgXfXfXpX6XwXgXhXhXhXhXhXhXhXhXhXhXhXhXhXhXhXhXhXhXhXhX|.& e j L J F J ) OXtXV @ % -       ",
"      ~ ~ ~ >.+XaXl.^ ^ ^ ! ! ! E ` 4XgXfXpX*XqXgXgXgXhXhXhXhXhXhXhXhXhXhXhXhXhXhXhXhXhXhXhXJ.& q i j K J J B.aXP.- $ % %       ",
"      ~ ~ ~ ! s.pX4X0.^ ^ ! ! ! R Q ^.fXeX#X*XsXgXgXgXgXgXgXgXgXgXgXgXgXgXgXgXgXgXhXhXhXhXtXC O 0 y t j K M.9X8XM @ $ % %       ",
"        ~ ~ ~ ~ ).gX[.~ ^ ^ ! ! ! Q X.[.'.#XaXgXgXgXgXgXgXgXgXgXgXgXgXgXgXgXgXgXgXhXhXhXdXG.* = = 0 y t F .XdX2.$ $ % %         ",
"          ~ ~ ~ :.>XaXK.! ! ! ! ! E Q o.D.eXgXhXhXhXhXhXhXhXhXhXhXhXhXhXhXhXhXhXhXhXhXrXH.; O = = = y u K.fX!.: $ % %           ",
"          ~ ~ ~ ~ a.0XrXs.! R ! ! ( ( ..Y =.H.E.W.W.W.W.E.W.W.W.W.I.I.I.I.W.I.I.W.W.H.M & O = = = = > 4.yX:X3 $ % % %           ",
"            ~ ~ ~ ~ z.uX9Xa.! ! ! ! ! ( E j 0 & $ $ * * * * * * * * * * * * * $ * * 9 O = = = = = , *.0X2XV $ % % %             ",
"              ~ ~ ~ ~ Y.aX9Xs.^ R ! ! ! ( E H t 9 O O O O O O O O O O O O O O & = 0 0 0 = = - = > 4.9X0X1.@ # % %               ",
"              ~ ~ ~ ~ ~ Y.pX0XV.^ R ! ! ! ( ( H y = = = & & & & & = = = & & & = = = = = = = = 2 g.rX2X1.X . # % %               ",
"                ~ ~ ~ ! ~ z.0XaX[.0.R ! ! ! ( E f 0 = = = = = = = = = = = = = = = = = = = > b L.sX<X&.X . . X %                 ",
"                  ~ ~ ~ U U d.;XfX4XB.^ R R R E K f = = = = = = = = - - - - - - , , > > z 4.;XsX~.5 @ @ . X #                   ",
"                    ~ U U U U >.R.rXaXOXs.^ R L Q K f y y y y y , > , , , , > > > > z *..XsX2XF.: . # # X o                     ",
"                      ~ U U U I U *.I.tXaX+XV.;.E | } d y y y y y y y > > > > u b d.@XuXuXI.6 X . # X # %                       ",
"                          U U U U T b &.P.rXfX9X.X/.m.v.c u u u u u z v b =.g.{.1XsXrX!.&.; @ . . . X                           ",
"                            U U U I T c x M H.-XrXdXaXyX,X@X.X{.{.{.@X;X8XuXjXtX:XG.6 ; @ # # X X o                             ",
"                                U I I T c 0 = 1 B 1.J.|.:X2XrXtXtXrX2X<X}.U.2.V 1 # $ $ # % % %                                 ",
"                                  U U A I c , = = = * - 1 3 5 5 5 5 3 4 ; % $ $ % % % % % % %                                   ",
"                                        I A v < , , , - - $ $ $ $ $ $ $ % % % % % % % %                                         ",
"                                            S v z , , , - - - - - - - - - - - - - %                                             ",
"                                                    2 , , , - - - - - % - ,                                                     "
};
