/* XPM */
static char *dash_logo_toolbar_32x32[] = {
/* columns rows colors chars-per-pixel */
"32 32 181 2 ",
"   c None",
".  c #1654AE",
"X  c #1A55AF",
"o  c #1A58AF",
"O  c #1757B2",
"+  c #1856B1",
"@  c #175AB5",
"#  c #1A5CB5",
"$  c #135BBB",
"%  c #1C5CBB",
"&  c #1660BE",
"*  c #1B61BC",
"=  c #2663BB",
"-  c #2A66BB",
";  c #2069BF",
":  c #3165B7",
">  c #336BBC",
",  c #3971BF",
"<  c #0C5BC5",
"1  c #145CC0",
"2  c #1F5FC0",
"3  c #145FCB",
"4  c #1564C6",
"5  c #1D67C1",
"6  c #1768C7",
"7  c #1564CA",
"8  c #166CCA",
"9  c #196ECB",
"0  c #1B74CD",
"q  c #1E7ACE",
"w  c #1768D2",
"e  c #1C76D0",
"r  c #1F7BD4",
"t  c #2D68C3",
"y  c #226ECB",
"u  c #2371C6",
"i  c #2072C8",
"p  c #2B76C9",
"a  c #2C75C5",
"s  c #3C71C1",
"d  c #397AC6",
"f  c #3877C9",
"g  c #3A7CC8",
"h  c #217CD3",
"j  c #4075C0",
"k  c #2F81CE",
"l  c #3D80C9",
"z  c #2482D4",
"x  c #2D89D6",
"c  c #2385DB",
"v  c #278BDD",
"b  c #2C8CDA",
"n  c #348DD5",
"m  c #398ED2",
"M  c #318CD9",
"N  c #2E91D5",
"B  c #2E91DA",
"V  c #3493D5",
"C  c #3A93D4",
"Z  c #359AD6",
"A  c #3B9BD6",
"S  c #3694D9",
"D  c #3895D8",
"F  c #379DDA",
"G  c #3B9CD9",
"H  c #3CA0D7",
"J  c #37A0DD",
"K  c #3DA1DB",
"L  c #3FA8DF",
"P  c #2990E0",
"I  c #3399E1",
"U  c #34A2E3",
"Y  c #38A4E2",
"T  c #4F8ACC",
"R  c #5682C6",
"E  c #5A82C3",
"W  c #5C8CD3",
"Q  c #4295D7",
"!  c #419ED7",
"~  c #4097DB",
"^  c #459BDF",
"/  c #4B9DD9",
"(  c #4A92D4",
")  c #539FDA",
"_  c #6790CB",
"`  c #6D93CD",
"'  c #7295CB",
"]  c #6097D1",
"[  c #6992D0",
"{  c #43A1D7",
"}  c #4DA3D7",
"|  c #44A3D9",
" . c #4CA4DA",
".. c #4DAADD",
"X. c #53A5D9",
"o. c #59A4DB",
"O. c #53ACDD",
"+. c #5BABDC",
"@. c #56B0DD",
"#. c #5AB1DE",
"$. c #62AEDE",
"%. c #6DAFDF",
"&. c #6EA2DC",
"*. c #7FA1D4",
"=. c #72AEDE",
"-. c #64B0DD",
";. c #6BB3DE",
":. c #54AEE0",
">. c #5FA8E2",
",. c #55B1E1",
"<. c #6EAFE0",
"1. c #66B3E6",
"2. c #6DB5E4",
"3. c #73B3E2",
"4. c #74BCE1",
"5. c #7DBDE3",
"6. c #7CB4EA",
"7. c #7CC3E4",
"8. c #75C1E8",
"9. c #89AFDC",
"0. c #86A5D3",
"q. c #86B1DC",
"w. c #9BB6DC",
"e. c #93B9DE",
"r. c #9CB9DE",
"t. c #84BEE4",
"y. c #8BBEE4",
"u. c #9BBFE3",
"i. c #97BBE2",
"p. c #A2BBE2",
"a. c #8AC0E6",
"s. c #8DCBE6",
"d. c #8EC6EC",
"f. c #89C8E7",
"g. c #93C6E6",
"h. c #9CCAE7",
"j. c #9CCBE9",
"k. c #98C5E7",
"l. c #97D3EE",
"z. c #9AD3EA",
"x. c #AEC6E4",
"c. c #AEC9E4",
"v. c #A4C2EA",
"b. c #AEC7EA",
"n. c #A0CBE8",
"m. c #AFC8EA",
"M. c #B0C7E1",
"N. c #B2CCE5",
"B. c #B1C9EB",
"V. c #B1CBEA",
"C. c #A4D4EB",
"Z. c #AAD4EB",
"A. c #B3D2EA",
"S. c #BAD3EC",
"D. c #B7DBEF",
"F. c #BADDEF",
"G. c #B9DEEF",
"H. c #BDDDEF",
"J. c #BADBEE",
"K. c #AED8F4",
"L. c #BCDEF0",
"P. c #BDE0EF",
"I. c #BEE2F8",
"U. c #BAE1F2",
"Y. c #C6D5EB",
"T. c #CAD7EC",
"R. c #C1DBEF",
"E. c #C1E1F1",
"W. c #C2E4F3",
"Q. c #D5ECFA",
"!. c #DAECF6",
"~. c #DDF2FB",
"^. c #E5F4FA",
"/. c #E9F6FA",
"(. c #ECF6FA",
"). c #EAF8FD",
"_. c #F4F9FC",
"`. c #FDFFFF",
"'. c white",
"]. c #FEFFFF",
"[. c #FCFEFE",
/* pixels */
"                        | | | | { ! ! !                         ",
"                  | | { | ..O.#.@.O.| A A A A                   ",
"              | | | @.7.C.F.H.F.L.H.F.C.5.X.A C C               ",
"            | | @.z.E.Z.5.+. . .|  .-.t.Z.L.g.} C C             ",
"          | | 7.E.j.+.G Z G H H H G A A A +.n.H.2.C C           ",
"        | | s.E.;.Z Z G H H H H G G G A A A A 3.E.t.C C         ",
"      | { s.F.X.Z Z F K L K K H G G G G G A A C +.H.t.C C       ",
"    | { 4.H.X.Z G L s.W.U.8.Y K K G G G G A C C C o.R.%.V C     ",
"    { O.P.;.Z G J l.[.].].(.1.U K G G G G G S C C V <.S.Q V     ",
"  | { j.j.A G G ..~.].].].].v.P Y G G G G G S C C C C h.q.M C   ",
"  { +.P.O.G A G ,./.].].].].b.w v G G G G G S S C C C X.N.l M   ",
"  A f.C.H H H G ,./.].].].].B.7 9 b F D D S D S C C C C n._ i   ",
"{ { Z.4.G { H G O./.].].].].B.7 7 0 b S D S D D C C C n 3.r.* i ",
"! } F.O.G G G G O./.].].].].B.7 6 8 e b S S S C D C C n X.N.- % ",
"A +.F.| G G G F :./.].].].].B.7 4 8 9 e x S S D D n n n Q A., @ ",
"A -.D.| G A G Z O.^.].].].].m.7 4 6 9 e h x S S n n n n C A.j @ ",
"A -.D.{ G A A Z O.^.].[.].].b.7 4 6 9 0 r z n V n n n n C A.j @ ",
"A +.F.| A A A Z ..^.].[.[.].b.3 4 6 9 0 h z x n n n n M Q A.s # ",
"A } J.X.A A A Z ..^.].[.[.].v.< < 4 8 0 q z x M n n n x / N.- % ",
"Q A Z.;.Z A A V O.^.[.[.].(.6.&.i.u.k.k.n.a.~ v b n M x <.r.% % ",
"  C t.h.A C C V  .^.[.[._.K.I.[.].].].].].].R.M v M M M h.` @   ",
"  C X.J.} V C V  .^.[.(.Q.~.[.[.[.[.[.].].]._.W c b x / N.> #   ",
"  C C g.g.V V V | !.(.Q.).[.[.[.[.[.[.[.[.[.[.W 7 c b g.*.@ #   ",
"    C X.H.$.V V B d.I.^.[.[.[.[.[.[.[.[.[.].T.t 1 8 >.N.- @     ",
"    C C 3.J./ N N I 3.S.Y.Y.Y.Y.Y.Y.Y.Y.Y.p.s $ $ g N.R O #     ",
"      C C y.A./ N V b y % % % % % % % % 2 1 $ $ g c.' O #       ",
"        C C y.J.$.V V b 4 $ $ $ $ $ $ $ $ $ & T N.' X +         ",
"          C m =.S.g.} N z 4 & & & $ $ $ * g 9.M.E + .           ",
"            m n ( 9.N.j.2.^ p u u a l ] e.N.0.: . +             ",
"              m n k f [ w.c.c.c.c.M.x.w.` > + + o               ",
"                  n k 5 * = > s s > = # O O O                   ",
"                        ; * % % % # # #                         "
};
